M48
; DRILL file {KiCad (5.1.4)-1} date 12/10/2020 19:05:53
; FORMAT={-:-/ absolute / inch / decimal}
; #@! TF.CreationDate,2020-12-10T19:05:53-06:00
; #@! TF.GenerationSoftware,Kicad,Pcbnew,(5.1.4)-1
; #@! TF.FileFunction,Plated,1,2,PTH
FMAT,2
INCH
T1C0.0157
T2C0.0866
%
G90
G05
T1
X7.435Y-8.4252
X7.4541Y-8.3793
X7.4541Y-8.4711
X7.5Y-8.3602
X7.5Y-8.4902
X7.5459Y-8.3793
X7.5459Y-8.4711
X7.565Y-8.4252
X11.7264Y-8.4252
X11.7454Y-8.3793
X11.7454Y-8.4711
X11.7913Y-8.3602
X11.7913Y-8.4902
X11.8373Y-8.3793
X11.8373Y-8.4711
X11.8563Y-8.4252
X11.7264Y-5.7087
X11.7454Y-5.6627
X11.7454Y-5.7546
X11.7913Y-5.6437
X11.7913Y-5.7736
X11.8373Y-5.6627
X11.8373Y-5.7546
X11.8563Y-5.7087
X7.435Y-5.7087
X7.4541Y-5.6627
X7.4541Y-5.7546
X7.5Y-5.6437
X7.5Y-5.7736
X7.5459Y-5.6627
X7.5459Y-5.7546
X7.565Y-5.7087
T2
X7.5Y-8.4252
X11.7913Y-8.4252
X11.7913Y-5.7087
X7.5Y-5.7087
T0
M30
