G04 #@! TF.GenerationSoftware,KiCad,Pcbnew,(5.1.4)-1*
G04 #@! TF.CreationDate,2020-12-10T19:05:49-06:00*
G04 #@! TF.ProjectId,tenjuepad,74656e6a-7565-4706-9164-2e6b69636164,rev?*
G04 #@! TF.SameCoordinates,Original*
G04 #@! TF.FileFunction,Copper,L1,Top*
G04 #@! TF.FilePolarity,Positive*
%FSLAX46Y46*%
G04 Gerber Fmt 4.6, Leading zero omitted, Abs format (unit mm)*
G04 Created by KiCad (PCBNEW (5.1.4)-1) date 2020-12-10 19:05:49*
%MOMM*%
%LPD*%
G04 APERTURE LIST*
%ADD10C,0.700000*%
%ADD11C,4.400000*%
%ADD12C,0.254000*%
G04 APERTURE END LIST*
D10*
X191666726Y-143833274D03*
X190500000Y-143350000D03*
X189333274Y-143833274D03*
X188850000Y-145000000D03*
X189333274Y-146166726D03*
X190500000Y-146650000D03*
X191666726Y-146166726D03*
X192150000Y-145000000D03*
D11*
X190500000Y-145000000D03*
D10*
X191666726Y-212833274D03*
X190500000Y-212350000D03*
X189333274Y-212833274D03*
X188850000Y-214000000D03*
X189333274Y-215166726D03*
X190500000Y-215650000D03*
X191666726Y-215166726D03*
X192150000Y-214000000D03*
D11*
X190500000Y-214000000D03*
D10*
X300666726Y-212833274D03*
X299500000Y-212350000D03*
X298333274Y-212833274D03*
X297850000Y-214000000D03*
X298333274Y-215166726D03*
X299500000Y-215650000D03*
X300666726Y-215166726D03*
X301150000Y-214000000D03*
D11*
X299500000Y-214000000D03*
D10*
X300666726Y-143833274D03*
X299500000Y-143350000D03*
X298333274Y-143833274D03*
X297850000Y-145000000D03*
X298333274Y-146166726D03*
X299500000Y-146650000D03*
X300666726Y-146166726D03*
X301150000Y-145000000D03*
D11*
X299500000Y-145000000D03*
D12*
G36*
X190405708Y-141474040D02*
G01*
X190476374Y-141481000D01*
X299523626Y-141481000D01*
X299594292Y-141474040D01*
X299673336Y-141450062D01*
X300192819Y-141500998D01*
X300859257Y-141702208D01*
X301473911Y-142029026D01*
X302013384Y-142469009D01*
X302457123Y-143005398D01*
X302788225Y-143617760D01*
X302994079Y-144282768D01*
X303050909Y-144823463D01*
X303025960Y-144905709D01*
X303019000Y-144976375D01*
X303019001Y-214023626D01*
X303025961Y-214094292D01*
X303049938Y-214173333D01*
X302999002Y-214692819D01*
X302797793Y-215359255D01*
X302470975Y-215973911D01*
X302030989Y-216513386D01*
X301494602Y-216957123D01*
X300882245Y-217288223D01*
X300217232Y-217494079D01*
X299676538Y-217550909D01*
X299594292Y-217525960D01*
X299523626Y-217519000D01*
X190476374Y-217519000D01*
X190405708Y-217525960D01*
X190326664Y-217549938D01*
X189807181Y-217499002D01*
X189140745Y-217297793D01*
X188526089Y-216970975D01*
X187986614Y-216530989D01*
X187542877Y-215994602D01*
X187540268Y-215989775D01*
X188689830Y-215989775D01*
X188929976Y-216377018D01*
X189423877Y-216637641D01*
X189959133Y-216796901D01*
X190515174Y-216848678D01*
X191070632Y-216790981D01*
X191604161Y-216626028D01*
X192070024Y-216377018D01*
X192310170Y-215989775D01*
X297689830Y-215989775D01*
X297929976Y-216377018D01*
X298423877Y-216637641D01*
X298959133Y-216796901D01*
X299515174Y-216848678D01*
X300070632Y-216790981D01*
X300604161Y-216626028D01*
X301070024Y-216377018D01*
X301310170Y-215989775D01*
X299500000Y-214179605D01*
X297689830Y-215989775D01*
X192310170Y-215989775D01*
X190500000Y-214179605D01*
X188689830Y-215989775D01*
X187540268Y-215989775D01*
X187211777Y-215382245D01*
X187005921Y-214717232D01*
X186949091Y-214176538D01*
X186974040Y-214094292D01*
X186981000Y-214023626D01*
X186981000Y-214015174D01*
X187651322Y-214015174D01*
X187709019Y-214570632D01*
X187873972Y-215104161D01*
X188122982Y-215570024D01*
X188510225Y-215810170D01*
X190320395Y-214000000D01*
X190679605Y-214000000D01*
X192489775Y-215810170D01*
X192877018Y-215570024D01*
X193137641Y-215076123D01*
X193296901Y-214540867D01*
X193345852Y-214015174D01*
X296651322Y-214015174D01*
X296709019Y-214570632D01*
X296873972Y-215104161D01*
X297122982Y-215570024D01*
X297510225Y-215810170D01*
X299320395Y-214000000D01*
X299679605Y-214000000D01*
X301489775Y-215810170D01*
X301877018Y-215570024D01*
X302137641Y-215076123D01*
X302296901Y-214540867D01*
X302348678Y-213984826D01*
X302290981Y-213429368D01*
X302126028Y-212895839D01*
X301877018Y-212429976D01*
X301489775Y-212189830D01*
X299679605Y-214000000D01*
X299320395Y-214000000D01*
X297510225Y-212189830D01*
X297122982Y-212429976D01*
X296862359Y-212923877D01*
X296703099Y-213459133D01*
X296651322Y-214015174D01*
X193345852Y-214015174D01*
X193348678Y-213984826D01*
X193290981Y-213429368D01*
X193126028Y-212895839D01*
X192877018Y-212429976D01*
X192489775Y-212189830D01*
X190679605Y-214000000D01*
X190320395Y-214000000D01*
X188510225Y-212189830D01*
X188122982Y-212429976D01*
X187862359Y-212923877D01*
X187703099Y-213459133D01*
X187651322Y-214015174D01*
X186981000Y-214015174D01*
X186981000Y-212010225D01*
X188689830Y-212010225D01*
X190500000Y-213820395D01*
X192310170Y-212010225D01*
X297689830Y-212010225D01*
X299500000Y-213820395D01*
X301310170Y-212010225D01*
X301070024Y-211622982D01*
X300576123Y-211362359D01*
X300040867Y-211203099D01*
X299484826Y-211151322D01*
X298929368Y-211209019D01*
X298395839Y-211373972D01*
X297929976Y-211622982D01*
X297689830Y-212010225D01*
X192310170Y-212010225D01*
X192070024Y-211622982D01*
X191576123Y-211362359D01*
X191040867Y-211203099D01*
X190484826Y-211151322D01*
X189929368Y-211209019D01*
X189395839Y-211373972D01*
X188929976Y-211622982D01*
X188689830Y-212010225D01*
X186981000Y-212010225D01*
X186981000Y-146989775D01*
X188689830Y-146989775D01*
X188929976Y-147377018D01*
X189423877Y-147637641D01*
X189959133Y-147796901D01*
X190515174Y-147848678D01*
X191070632Y-147790981D01*
X191604161Y-147626028D01*
X192070024Y-147377018D01*
X192310170Y-146989775D01*
X297689830Y-146989775D01*
X297929976Y-147377018D01*
X298423877Y-147637641D01*
X298959133Y-147796901D01*
X299515174Y-147848678D01*
X300070632Y-147790981D01*
X300604161Y-147626028D01*
X301070024Y-147377018D01*
X301310170Y-146989775D01*
X299500000Y-145179605D01*
X297689830Y-146989775D01*
X192310170Y-146989775D01*
X190500000Y-145179605D01*
X188689830Y-146989775D01*
X186981000Y-146989775D01*
X186981000Y-145015174D01*
X187651322Y-145015174D01*
X187709019Y-145570632D01*
X187873972Y-146104161D01*
X188122982Y-146570024D01*
X188510225Y-146810170D01*
X190320395Y-145000000D01*
X190679605Y-145000000D01*
X192489775Y-146810170D01*
X192877018Y-146570024D01*
X193137641Y-146076123D01*
X193296901Y-145540867D01*
X193345852Y-145015174D01*
X296651322Y-145015174D01*
X296709019Y-145570632D01*
X296873972Y-146104161D01*
X297122982Y-146570024D01*
X297510225Y-146810170D01*
X299320395Y-145000000D01*
X299679605Y-145000000D01*
X301489775Y-146810170D01*
X301877018Y-146570024D01*
X302137641Y-146076123D01*
X302296901Y-145540867D01*
X302348678Y-144984826D01*
X302290981Y-144429368D01*
X302126028Y-143895839D01*
X301877018Y-143429976D01*
X301489775Y-143189830D01*
X299679605Y-145000000D01*
X299320395Y-145000000D01*
X297510225Y-143189830D01*
X297122982Y-143429976D01*
X296862359Y-143923877D01*
X296703099Y-144459133D01*
X296651322Y-145015174D01*
X193345852Y-145015174D01*
X193348678Y-144984826D01*
X193290981Y-144429368D01*
X193126028Y-143895839D01*
X192877018Y-143429976D01*
X192489775Y-143189830D01*
X190679605Y-145000000D01*
X190320395Y-145000000D01*
X188510225Y-143189830D01*
X188122982Y-143429976D01*
X187862359Y-143923877D01*
X187703099Y-144459133D01*
X187651322Y-145015174D01*
X186981000Y-145015174D01*
X186981000Y-144976374D01*
X186974040Y-144905708D01*
X186950062Y-144826664D01*
X187000998Y-144307181D01*
X187202208Y-143640743D01*
X187529026Y-143026089D01*
X187541964Y-143010225D01*
X188689830Y-143010225D01*
X190500000Y-144820395D01*
X192310170Y-143010225D01*
X297689830Y-143010225D01*
X299500000Y-144820395D01*
X301310170Y-143010225D01*
X301070024Y-142622982D01*
X300576123Y-142362359D01*
X300040867Y-142203099D01*
X299484826Y-142151322D01*
X298929368Y-142209019D01*
X298395839Y-142373972D01*
X297929976Y-142622982D01*
X297689830Y-143010225D01*
X192310170Y-143010225D01*
X192070024Y-142622982D01*
X191576123Y-142362359D01*
X191040867Y-142203099D01*
X190484826Y-142151322D01*
X189929368Y-142209019D01*
X189395839Y-142373972D01*
X188929976Y-142622982D01*
X188689830Y-143010225D01*
X187541964Y-143010225D01*
X187969009Y-142486616D01*
X188505398Y-142042877D01*
X189117760Y-141711775D01*
X189782768Y-141505921D01*
X190323462Y-141449091D01*
X190405708Y-141474040D01*
X190405708Y-141474040D01*
G37*
X190405708Y-141474040D02*
X190476374Y-141481000D01*
X299523626Y-141481000D01*
X299594292Y-141474040D01*
X299673336Y-141450062D01*
X300192819Y-141500998D01*
X300859257Y-141702208D01*
X301473911Y-142029026D01*
X302013384Y-142469009D01*
X302457123Y-143005398D01*
X302788225Y-143617760D01*
X302994079Y-144282768D01*
X303050909Y-144823463D01*
X303025960Y-144905709D01*
X303019000Y-144976375D01*
X303019001Y-214023626D01*
X303025961Y-214094292D01*
X303049938Y-214173333D01*
X302999002Y-214692819D01*
X302797793Y-215359255D01*
X302470975Y-215973911D01*
X302030989Y-216513386D01*
X301494602Y-216957123D01*
X300882245Y-217288223D01*
X300217232Y-217494079D01*
X299676538Y-217550909D01*
X299594292Y-217525960D01*
X299523626Y-217519000D01*
X190476374Y-217519000D01*
X190405708Y-217525960D01*
X190326664Y-217549938D01*
X189807181Y-217499002D01*
X189140745Y-217297793D01*
X188526089Y-216970975D01*
X187986614Y-216530989D01*
X187542877Y-215994602D01*
X187540268Y-215989775D01*
X188689830Y-215989775D01*
X188929976Y-216377018D01*
X189423877Y-216637641D01*
X189959133Y-216796901D01*
X190515174Y-216848678D01*
X191070632Y-216790981D01*
X191604161Y-216626028D01*
X192070024Y-216377018D01*
X192310170Y-215989775D01*
X297689830Y-215989775D01*
X297929976Y-216377018D01*
X298423877Y-216637641D01*
X298959133Y-216796901D01*
X299515174Y-216848678D01*
X300070632Y-216790981D01*
X300604161Y-216626028D01*
X301070024Y-216377018D01*
X301310170Y-215989775D01*
X299500000Y-214179605D01*
X297689830Y-215989775D01*
X192310170Y-215989775D01*
X190500000Y-214179605D01*
X188689830Y-215989775D01*
X187540268Y-215989775D01*
X187211777Y-215382245D01*
X187005921Y-214717232D01*
X186949091Y-214176538D01*
X186974040Y-214094292D01*
X186981000Y-214023626D01*
X186981000Y-214015174D01*
X187651322Y-214015174D01*
X187709019Y-214570632D01*
X187873972Y-215104161D01*
X188122982Y-215570024D01*
X188510225Y-215810170D01*
X190320395Y-214000000D01*
X190679605Y-214000000D01*
X192489775Y-215810170D01*
X192877018Y-215570024D01*
X193137641Y-215076123D01*
X193296901Y-214540867D01*
X193345852Y-214015174D01*
X296651322Y-214015174D01*
X296709019Y-214570632D01*
X296873972Y-215104161D01*
X297122982Y-215570024D01*
X297510225Y-215810170D01*
X299320395Y-214000000D01*
X299679605Y-214000000D01*
X301489775Y-215810170D01*
X301877018Y-215570024D01*
X302137641Y-215076123D01*
X302296901Y-214540867D01*
X302348678Y-213984826D01*
X302290981Y-213429368D01*
X302126028Y-212895839D01*
X301877018Y-212429976D01*
X301489775Y-212189830D01*
X299679605Y-214000000D01*
X299320395Y-214000000D01*
X297510225Y-212189830D01*
X297122982Y-212429976D01*
X296862359Y-212923877D01*
X296703099Y-213459133D01*
X296651322Y-214015174D01*
X193345852Y-214015174D01*
X193348678Y-213984826D01*
X193290981Y-213429368D01*
X193126028Y-212895839D01*
X192877018Y-212429976D01*
X192489775Y-212189830D01*
X190679605Y-214000000D01*
X190320395Y-214000000D01*
X188510225Y-212189830D01*
X188122982Y-212429976D01*
X187862359Y-212923877D01*
X187703099Y-213459133D01*
X187651322Y-214015174D01*
X186981000Y-214015174D01*
X186981000Y-212010225D01*
X188689830Y-212010225D01*
X190500000Y-213820395D01*
X192310170Y-212010225D01*
X297689830Y-212010225D01*
X299500000Y-213820395D01*
X301310170Y-212010225D01*
X301070024Y-211622982D01*
X300576123Y-211362359D01*
X300040867Y-211203099D01*
X299484826Y-211151322D01*
X298929368Y-211209019D01*
X298395839Y-211373972D01*
X297929976Y-211622982D01*
X297689830Y-212010225D01*
X192310170Y-212010225D01*
X192070024Y-211622982D01*
X191576123Y-211362359D01*
X191040867Y-211203099D01*
X190484826Y-211151322D01*
X189929368Y-211209019D01*
X189395839Y-211373972D01*
X188929976Y-211622982D01*
X188689830Y-212010225D01*
X186981000Y-212010225D01*
X186981000Y-146989775D01*
X188689830Y-146989775D01*
X188929976Y-147377018D01*
X189423877Y-147637641D01*
X189959133Y-147796901D01*
X190515174Y-147848678D01*
X191070632Y-147790981D01*
X191604161Y-147626028D01*
X192070024Y-147377018D01*
X192310170Y-146989775D01*
X297689830Y-146989775D01*
X297929976Y-147377018D01*
X298423877Y-147637641D01*
X298959133Y-147796901D01*
X299515174Y-147848678D01*
X300070632Y-147790981D01*
X300604161Y-147626028D01*
X301070024Y-147377018D01*
X301310170Y-146989775D01*
X299500000Y-145179605D01*
X297689830Y-146989775D01*
X192310170Y-146989775D01*
X190500000Y-145179605D01*
X188689830Y-146989775D01*
X186981000Y-146989775D01*
X186981000Y-145015174D01*
X187651322Y-145015174D01*
X187709019Y-145570632D01*
X187873972Y-146104161D01*
X188122982Y-146570024D01*
X188510225Y-146810170D01*
X190320395Y-145000000D01*
X190679605Y-145000000D01*
X192489775Y-146810170D01*
X192877018Y-146570024D01*
X193137641Y-146076123D01*
X193296901Y-145540867D01*
X193345852Y-145015174D01*
X296651322Y-145015174D01*
X296709019Y-145570632D01*
X296873972Y-146104161D01*
X297122982Y-146570024D01*
X297510225Y-146810170D01*
X299320395Y-145000000D01*
X299679605Y-145000000D01*
X301489775Y-146810170D01*
X301877018Y-146570024D01*
X302137641Y-146076123D01*
X302296901Y-145540867D01*
X302348678Y-144984826D01*
X302290981Y-144429368D01*
X302126028Y-143895839D01*
X301877018Y-143429976D01*
X301489775Y-143189830D01*
X299679605Y-145000000D01*
X299320395Y-145000000D01*
X297510225Y-143189830D01*
X297122982Y-143429976D01*
X296862359Y-143923877D01*
X296703099Y-144459133D01*
X296651322Y-145015174D01*
X193345852Y-145015174D01*
X193348678Y-144984826D01*
X193290981Y-144429368D01*
X193126028Y-143895839D01*
X192877018Y-143429976D01*
X192489775Y-143189830D01*
X190679605Y-145000000D01*
X190320395Y-145000000D01*
X188510225Y-143189830D01*
X188122982Y-143429976D01*
X187862359Y-143923877D01*
X187703099Y-144459133D01*
X187651322Y-145015174D01*
X186981000Y-145015174D01*
X186981000Y-144976374D01*
X186974040Y-144905708D01*
X186950062Y-144826664D01*
X187000998Y-144307181D01*
X187202208Y-143640743D01*
X187529026Y-143026089D01*
X187541964Y-143010225D01*
X188689830Y-143010225D01*
X190500000Y-144820395D01*
X192310170Y-143010225D01*
X297689830Y-143010225D01*
X299500000Y-144820395D01*
X301310170Y-143010225D01*
X301070024Y-142622982D01*
X300576123Y-142362359D01*
X300040867Y-142203099D01*
X299484826Y-142151322D01*
X298929368Y-142209019D01*
X298395839Y-142373972D01*
X297929976Y-142622982D01*
X297689830Y-143010225D01*
X192310170Y-143010225D01*
X192070024Y-142622982D01*
X191576123Y-142362359D01*
X191040867Y-142203099D01*
X190484826Y-142151322D01*
X189929368Y-142209019D01*
X189395839Y-142373972D01*
X188929976Y-142622982D01*
X188689830Y-143010225D01*
X187541964Y-143010225D01*
X187969009Y-142486616D01*
X188505398Y-142042877D01*
X189117760Y-141711775D01*
X189782768Y-141505921D01*
X190323462Y-141449091D01*
X190405708Y-141474040D01*
M02*
