<?xml version="1.0" encoding="UTF-8" standalone="no"?>
<svg
   xmlns:dc="http://purl.org/dc/elements/1.1/"
   xmlns:cc="http://creativecommons.org/ns#"
   xmlns:rdf="http://www.w3.org/1999/02/22-rdf-syntax-ns#"
   xmlns:svg="http://www.w3.org/2000/svg"
   xmlns="http://www.w3.org/2000/svg"
   xmlns:sodipodi="http://sodipodi.sourceforge.net/DTD/sodipodi-0.dtd"
   xmlns:inkscape="http://www.inkscape.org/namespaces/inkscape"
   inkscape:version="1.0 (4035a4fb49, 2020-05-01)"
   sodipodi:docname="tenjuepadmid.svg"
   id="svg122"
   version="1.1"
   height="292.02362"
   width="443.20471"
   viewBox="0 0 443.2047 292.02363">
  <metadata
     id="metadata126">
    <rdf:RDF>
      <cc:Work
         rdf:about="">
        <dc:format>image/svg+xml</dc:format>
        <dc:type
           rdf:resource="http://purl.org/dc/dcmitype/StillImage" />
        <dc:title></dc:title>
      </cc:Work>
    </rdf:RDF>
  </metadata>
  <sodipodi:namedview
     fit-margin-bottom="0"
     fit-margin-right="0"
     fit-margin-left="0"
     fit-margin-top="0"
     inkscape:current-layer="g118"
     inkscape:window-maximized="1"
     inkscape:window-y="-8"
     inkscape:window-x="-8"
     inkscape:cy="111.97771"
     inkscape:cx="196.54146"
     inkscape:zoom="0.89797982"
     showgrid="false"
     id="namedview124"
     inkscape:window-height="1377"
     inkscape:window-width="1760"
     inkscape:pageshadow="2"
     inkscape:pageopacity="0"
     guidetolerance="10"
     gridtolerance="10"
     objecttolerance="10"
     borderopacity="1"
     bordercolor="#666666"
     pagecolor="#ffffff" />
  <defs
     id="defs14">
    <marker
       style="overflow:visible"
       refY="0"
       refX="0"
       orient="auto"
       id="DistanceX">
      <path
         id="path2"
         style="stroke:#000000;stroke-width:0.5"
         d="M 3,-3 -3,3 M 0,-5 V 5" />
    </marker>
    <pattern
       y="0"
       x="0"
       height="8"
       width="8"
       patternUnits="userSpaceOnUse"
       id="Hatch">
      <path
         id="path5"
         linecap="square"
         stroke-width="0.25"
         stroke="#000000"
         d="M8 4 l-4,4" />
      <path
         id="path7"
         linecap="square"
         stroke-width="0.25"
         stroke="#000000"
         d="M6 2 l-4,4" />
      <path
         id="path9"
         linecap="square"
         stroke-width="0.25"
         stroke="#000000"
         d="M4 0 l-4,4" />
    </pattern>
    <symbol
       id="*MODEL_SPACE" />
    <symbol
       id="*PAPER_SPACE" />
  </defs>
  <g
     transform="translate(-704.38189,-298.08267)"
     id="g118"
     inkscape:label="0"
     inkscape:groupmode="layer">
    <path
       id="path16"
       style="fill:none;stroke:#000000"
       d="m 1135.748,385.32283 a 1.889764,1.889764 0 0 0 1.8898,1.88977" />
    <path
       id="path18"
       style="fill:none;stroke:#000000"
       d="m 1137.6378,387.2126 h 7.5591" />
    <path
       id="path20"
       style="fill:none;stroke:#000000"
       d="m 1145.1969,387.2126 a 1.889764,1.889764 0 0 0 1.8897,-1.88977" />
    <path
       id="path22"
       style="fill:none;stroke:#000000"
       d="M 1147.0866,385.32283 V 313.70079" />
    <path
       id="path24"
       style="fill:none;stroke:#000000"
       d="m 1147.0866,313.70079 a 15.11811,15.11811 0 0 0 -15.1181,-15.11811" />
    <path
       id="path26"
       style="fill:none;stroke:#000000"
       d="M 1131.9685,298.58268 H 956.22049" />
    <path
       id="path28"
       style="fill:none;stroke:#000000"
       d="m 956.22049,298.58268 -62.36221,-10e-6" />
    <path
       id="path30"
       style="fill:none;stroke:#000000"
       d="M 893.85828,298.58267 720,298.58268" />
    <path
       id="path32"
       style="fill:none;stroke:#000000"
       d="m 720,298.58268 a 15.11811,15.11811 0 0 0 -15.11811,15.11811" />
    <path
       id="path34"
       style="fill:none;stroke:#000000"
       d="m 704.88189,313.70079 v 260.7874" />
    <path
       id="path36"
       style="fill:none;stroke:#000000"
       d="M 704.88189,574.48819 A 15.11811,15.11811 0 0 0 720,589.6063" />
    <path
       id="path38"
       style="fill:none;stroke:#000000"
       d="m 720,589.6063 h 411.9685" />
    <path
       id="path40"
       style="fill:none;stroke:#000000"
       d="m 1131.9685,589.6063 a 15.11811,15.11811 0 0 0 15.1181,-15.11811" />
    <path
       id="path42"
       style="fill:none;stroke:#000000"
       d="M 1147.0866,574.48819 V 502.86613" />
    <path
       id="path44"
       style="fill:none;stroke:#000000"
       d="m 1147.0866,502.86613 a 1.889764,1.889764 0 0 0 -1.8897,-1.88976" />
    <path
       id="path46"
       style="fill:none;stroke:#000000"
       d="m 1145.1969,500.97637 h -7.5591" />
    <path
       id="path48"
       style="fill:none;stroke:#000000"
       d="m 1137.6378,500.97637 a 1.889764,1.889764 0 0 0 -1.8898,1.88976" />
    <path
       id="path50"
       style="fill:none;stroke:#000000"
       d="m 1135.748,502.86613 v 54.6142" />
    <path
       id="path52"
       style="fill:none;stroke:#000000"
       d="m 1133.8582,559.37009 a 1.889764,1.889764 0 0 0 1.8898,-1.88976" />
    <path
       id="path54"
       style="fill:none;stroke:#000000"
       d="m 1133.8582,559.37009 h -1.8897" />
    <path
       id="path56"
       style="fill:none;stroke:#000000"
       d="m 1131.9685,559.37009 a 15.118098,15.118098 0 0 0 -15.1181,15.11811" />
    <path
       id="path58"
       style="fill:none;stroke:#000000"
       d="m 1116.8504,574.4882 v 1.88977" />
    <path
       id="path60"
       style="fill:none;stroke:#000000"
       d="m 1114.9606,578.26773 a 1.889764,1.889764 0 0 0 1.8898,-1.88976" />
    <path
       id="path62"
       style="fill:none;stroke:#000000"
       d="M 1114.9606,578.26773 H 737.00786" />
    <path
       id="path64"
       style="fill:none;stroke:#000000"
       d="m 735.11809,576.37797 a 1.889764,1.889764 0 0 0 1.88977,1.88976" />
    <path
       id="path66"
       style="fill:none;stroke:#000000"
       d="M 735.11809,576.37797 V 574.4882" />
    <path
       id="path68"
       style="fill:none;stroke:#000000"
       d="M 735.11809,574.4882 A 15.118094,15.118094 0 0 0 719.99998,559.37009" />
    <path
       id="path70"
       style="fill:none;stroke:#000000"
       d="m 719.99998,559.37009 h -1.88976" />
    <path
       id="path72"
       style="fill:none;stroke:#000000"
       d="m 716.22046,557.48033 a 1.889764,1.889764 0 0 0 1.88976,1.88976" />
    <path
       id="path74"
       style="fill:none;stroke:#000000"
       d="M 716.22046,557.48033 V 330.70868" />
    <path
       id="path76"
       style="fill:none;stroke:#000000"
       d="m 718.11022,328.81892 a 1.889764,1.889764 0 0 0 -1.88976,1.88976" />
    <path
       id="path78"
       style="fill:none;stroke:#000000"
       d="m 718.11022,328.81892 h 1.88976" />
    <path
       id="path80"
       style="fill:none;stroke:#000000"
       d="M 719.99998,328.81892 A 15.118128,15.118128 0 0 0 735.11813,313.7008" />
    <path
       id="path82"
       style="fill:none;stroke:#000000"
       d="m 735.11809,313.7008 v -1.88976" />
    <path
       id="path84"
       style="fill:none;stroke:#000000"
       d="m 737.00786,309.92128 a 1.889764,1.889764 0 0 0 -1.88977,1.88976" />
    <path
       id="path86"
       style="fill:none;stroke:#000000"
       d="M 737.00786,309.92128 H 1114.9606" />
    <path
       id="path88"
       style="fill:none;stroke:#000000"
       d="m 1116.8504,311.81103 a 1.889764,1.889764 0 0 0 -1.8898,-1.88975" />
    <path
       id="path90"
       style="fill:none;stroke:#000000"
       d="m 1116.8504,311.81103 v 1.88985" />
    <path
       id="path92"
       style="fill:none;stroke:#000000"
       d="m 1116.8504,313.70088 a 15.11811,15.11811 0 0 0 15.118,15.11802" />
    <path
       id="path94"
       style="fill:none;stroke:#000000"
       d="m 1131.9684,328.8189 1.8899,1e-5" />
    <path
       id="path96"
       style="fill:none;stroke:#000000"
       d="m 1135.748,330.70867 a 1.889764,1.889764 0 0 0 -1.8897,-1.88976" />
    <path
       id="path98"
       style="fill:none;stroke:#000000"
       d="m 1135.748,330.70867 v 54.61416" />
    <path
       id="path100"
       style="fill:none;stroke:#000000"
       d="m 727.55905,578.85241 v -8.72844 L 720,565.75974 l -3.77953,2.18212 -3.77952,2.18211 v 8.72844 L 720,583.21663 Z" />
    <path
       id="path102"
       style="fill:none;stroke:#000000"
       d="m 1139.5276,570.12397 -3.7796,-2.18211 -3.7795,-2.18212 -7.5591,4.36423 v 8.72844 l 7.5591,4.36422 7.5591,-4.36422 z" />
    <path
       id="path104"
       style="fill:none;stroke:#000000"
       d="m 712.44095,318.06501 3.77952,2.18211 3.77953,2.18211 7.55905,-4.36422 v -8.72845 L 720,304.97234 l -7.55905,4.36422 z" />
    <path
       id="path106"
       style="fill:none;stroke:#000000"
       d="m 1131.9685,322.42923 3.7795,-2.18211 3.7796,-2.18211 v -8.72845 l -7.5591,-4.36422 -7.5591,4.36422 v 8.72845 z" />
  </g>
  <desc
     id="desc120">tenjuepadmid.dxf - scale = 1.000000, origin = (0.000000, 0.000000), method = manual</desc>
</svg>
