M48
; DRILL file {KiCad (5.1.4)-1} date 12/10/2020 17:36:53
; FORMAT={-:-/ absolute / inch / decimal}
; #@! TF.CreationDate,2020-12-10T17:36:53-06:00
; #@! TF.GenerationSoftware,Kicad,Pcbnew,(5.1.4)-1
; #@! TF.FileFunction,NonPlated,1,2,NPTH
FMAT,2
INCH
T1C0.0472
T2C0.0748
T3C0.1339
%
G90
G05
T1
X8.3772Y-7.5669
X7.6685Y-7.5669
X8.3772Y-6.8976
X10.5031Y-6.8976
X9.0858Y-7.5669
X9.7945Y-6.8976
X8.7315Y-8.2362
X11.2118Y-6.2283
X7.6685Y-8.2362
X9.0858Y-6.2283
X10.5031Y-6.2283
X11.2118Y-6.8976
X7.6685Y-6.2283
X10.5031Y-7.5669
X11.2118Y-7.5669
X11.2118Y-8.2362
X9.0858Y-6.8976
X9.7945Y-6.2283
X9.7945Y-7.5669
X8.3772Y-6.2283
X10.1488Y-8.2362
X7.6685Y-6.8976
T2
X9.0748Y-6.063
X9.5079Y-6.063
X10.4921Y-6.063
X10.9252Y-6.063
X11.2008Y-6.7323
X11.6339Y-6.7323
X8.3661Y-7.4016
X8.7992Y-7.4016
X7.6575Y-6.063
X8.0906Y-6.063
X10.4921Y-7.4016
X10.9252Y-7.4016
X11.2008Y-7.4016
X11.6339Y-7.4016
X11.2008Y-8.0709
X11.6339Y-8.0709
X9.0748Y-6.7323
X9.5079Y-6.7323
X7.6575Y-7.4016
X8.0906Y-7.4016
X9.7835Y-6.063
X10.2165Y-6.063
X9.7835Y-7.4016
X10.2165Y-7.4016
X8.3661Y-6.063
X8.7992Y-6.063
X10.1378Y-8.0709
X10.5709Y-8.0709
X7.6575Y-6.7323
X8.0906Y-6.7323
X8.3661Y-6.7323
X8.7992Y-6.7323
X10.4921Y-6.7323
X10.9252Y-6.7323
X9.0748Y-7.4016
X9.5079Y-7.4016
X9.7835Y-6.7323
X10.2165Y-6.7323
X8.7205Y-8.0709
X9.1535Y-8.0709
X11.2008Y-6.063
X11.6339Y-6.063
X7.6575Y-8.0709
X8.0906Y-8.0709
T3
X10.7087Y-6.063
X11.4173Y-6.7323
X8.5827Y-7.4016
X7.874Y-6.063
X10.7087Y-7.4016
X11.4173Y-7.4016
X11.4173Y-8.0709
X9.2913Y-6.7323
X7.874Y-7.4016
X10.0Y-6.063
X10.0Y-7.4016
X8.5827Y-6.063
X10.3543Y-8.0709
X7.874Y-6.7323
X8.5827Y-6.7323
X10.7087Y-6.7323
X9.2913Y-7.4016
X10.0Y-6.7323
X8.937Y-8.0709
X11.4173Y-6.063
X7.874Y-8.0709
X9.2913Y-6.063
T0
M30
