G04 #@! TF.GenerationSoftware,KiCad,Pcbnew,(5.1.4)-1*
G04 #@! TF.CreationDate,2020-12-10T17:36:51-06:00*
G04 #@! TF.ProjectId,tenjuepad,74656e6a-7565-4706-9164-2e6b69636164,rev?*
G04 #@! TF.SameCoordinates,Original*
G04 #@! TF.FileFunction,Soldermask,Bot*
G04 #@! TF.FilePolarity,Negative*
%FSLAX46Y46*%
G04 Gerber Fmt 4.6, Leading zero omitted, Abs format (unit mm)*
G04 Created by KiCad (PCBNEW (5.1.4)-1) date 2020-12-10 17:36:51*
%MOMM*%
%LPD*%
G04 APERTURE LIST*
%ADD10C,1.752600*%
%ADD11O,1.700000X1.700000*%
%ADD12R,1.700000X1.700000*%
%ADD13R,0.700000X0.900000*%
%ADD14R,1.610000X0.600000*%
%ADD15C,0.700000*%
%ADD16C,4.400000*%
%ADD17C,1.200000*%
%ADD18C,1.900000*%
%ADD19C,2.000000*%
%ADD20C,3.400000*%
%ADD21R,1.600000X1.600000*%
%ADD22C,1.600000*%
%ADD23R,1.200000X1.600000*%
G04 APERTURE END LIST*
D10*
X297910000Y-178270000D03*
X297910000Y-163030000D03*
X295370000Y-163030000D03*
X267430000Y-178270000D03*
X292830000Y-163030000D03*
X290290000Y-163030000D03*
X287750000Y-163030000D03*
X285210000Y-163030000D03*
X282670000Y-163030000D03*
X280130000Y-163030000D03*
X277590000Y-163030000D03*
X275050000Y-163030000D03*
X272510000Y-163030000D03*
X269970000Y-163030000D03*
X267430000Y-163030000D03*
X269970000Y-178270000D03*
X272510000Y-178270000D03*
X275050000Y-178270000D03*
X277590000Y-178270000D03*
X280130000Y-178270000D03*
X282670000Y-178270000D03*
X285210000Y-178270000D03*
X287750000Y-178270000D03*
X290290000Y-178270000D03*
X292830000Y-178270000D03*
X295370000Y-178270000D03*
D11*
X276352000Y-201168000D03*
D12*
X276352000Y-203708000D03*
D13*
X301000000Y-191300000D03*
X301000000Y-185300000D03*
D14*
X299390000Y-189300000D03*
X299390000Y-188300000D03*
X299390000Y-187300000D03*
D15*
X191666726Y-143833274D03*
X190500000Y-143350000D03*
X189333274Y-143833274D03*
X188850000Y-145000000D03*
X189333274Y-146166726D03*
X190500000Y-146650000D03*
X191666726Y-146166726D03*
X192150000Y-145000000D03*
D16*
X190500000Y-145000000D03*
D15*
X191666726Y-212833274D03*
X190500000Y-212350000D03*
X189333274Y-212833274D03*
X188850000Y-214000000D03*
X189333274Y-215166726D03*
X190500000Y-215650000D03*
X191666726Y-215166726D03*
X192150000Y-214000000D03*
D16*
X190500000Y-214000000D03*
D15*
X300666726Y-212833274D03*
X299500000Y-212350000D03*
X298333274Y-212833274D03*
X297850000Y-214000000D03*
X298333274Y-215166726D03*
X299500000Y-215650000D03*
X300666726Y-215166726D03*
X301150000Y-214000000D03*
D16*
X299500000Y-214000000D03*
D15*
X300666726Y-143833274D03*
X299500000Y-143350000D03*
X298333274Y-143833274D03*
X297850000Y-145000000D03*
X298333274Y-146166726D03*
X299500000Y-146650000D03*
X300666726Y-146166726D03*
X301150000Y-145000000D03*
D16*
X299500000Y-145000000D03*
D17*
X284780000Y-209200000D03*
D18*
X295500000Y-205000000D03*
X284500000Y-205000000D03*
D19*
X295000000Y-201200000D03*
D20*
X290000000Y-205000000D03*
D19*
X290000000Y-199100000D03*
D17*
X257780000Y-209200000D03*
D18*
X268500000Y-205000000D03*
X257500000Y-205000000D03*
D19*
X268000000Y-201200000D03*
D20*
X263000000Y-205000000D03*
D19*
X263000000Y-199100000D03*
D17*
X221780000Y-209200000D03*
D18*
X232500000Y-205000000D03*
X221500000Y-205000000D03*
D19*
X232000000Y-201200000D03*
D20*
X227000000Y-205000000D03*
D19*
X227000000Y-199100000D03*
D17*
X194780000Y-209200000D03*
D18*
X205500000Y-205000000D03*
X194500000Y-205000000D03*
D19*
X205000000Y-201200000D03*
D20*
X200000000Y-205000000D03*
D19*
X200000000Y-199100000D03*
D17*
X284780000Y-192200000D03*
D18*
X295500000Y-188000000D03*
X284500000Y-188000000D03*
D19*
X295000000Y-184200000D03*
D20*
X290000000Y-188000000D03*
D19*
X290000000Y-182100000D03*
D17*
X266780000Y-192200000D03*
D18*
X277500000Y-188000000D03*
X266500000Y-188000000D03*
D19*
X277000000Y-184200000D03*
D20*
X272000000Y-188000000D03*
D19*
X272000000Y-182100000D03*
D17*
X248780000Y-192200000D03*
D18*
X259500000Y-188000000D03*
X248500000Y-188000000D03*
D19*
X259000000Y-184200000D03*
D20*
X254000000Y-188000000D03*
D19*
X254000000Y-182100000D03*
D17*
X230780000Y-192200000D03*
D18*
X241500000Y-188000000D03*
X230500000Y-188000000D03*
D19*
X241000000Y-184200000D03*
D20*
X236000000Y-188000000D03*
D19*
X236000000Y-182100000D03*
D17*
X212780000Y-192200000D03*
D18*
X223500000Y-188000000D03*
X212500000Y-188000000D03*
D19*
X223000000Y-184200000D03*
D20*
X218000000Y-188000000D03*
D19*
X218000000Y-182100000D03*
D17*
X194780000Y-192200000D03*
D18*
X205500000Y-188000000D03*
X194500000Y-188000000D03*
D19*
X205000000Y-184200000D03*
D20*
X200000000Y-188000000D03*
D19*
X200000000Y-182100000D03*
D17*
X284780000Y-175200000D03*
D18*
X295500000Y-171000000D03*
X284500000Y-171000000D03*
D19*
X295000000Y-167200000D03*
D20*
X290000000Y-171000000D03*
D19*
X290000000Y-165100000D03*
D17*
X266780000Y-175200000D03*
D18*
X277500000Y-171000000D03*
X266500000Y-171000000D03*
D19*
X277000000Y-167200000D03*
D20*
X272000000Y-171000000D03*
D19*
X272000000Y-165100000D03*
D17*
X248780000Y-175200000D03*
D18*
X259500000Y-171000000D03*
X248500000Y-171000000D03*
D19*
X259000000Y-167200000D03*
D20*
X254000000Y-171000000D03*
D19*
X254000000Y-165100000D03*
D17*
X230780000Y-175200000D03*
D18*
X241500000Y-171000000D03*
X230500000Y-171000000D03*
D19*
X241000000Y-167200000D03*
D20*
X236000000Y-171000000D03*
D19*
X236000000Y-165100000D03*
D17*
X212780000Y-175200000D03*
D18*
X223500000Y-171000000D03*
X212500000Y-171000000D03*
D19*
X223000000Y-167200000D03*
D20*
X218000000Y-171000000D03*
D19*
X218000000Y-165100000D03*
D17*
X194780000Y-175200000D03*
D18*
X205500000Y-171000000D03*
X194500000Y-171000000D03*
D19*
X205000000Y-167200000D03*
D20*
X200000000Y-171000000D03*
D19*
X200000000Y-165100000D03*
D17*
X284780000Y-158200000D03*
D18*
X295500000Y-154000000D03*
X284500000Y-154000000D03*
D19*
X295000000Y-150200000D03*
D20*
X290000000Y-154000000D03*
D19*
X290000000Y-148100000D03*
D17*
X266780000Y-158200000D03*
D18*
X277500000Y-154000000D03*
X266500000Y-154000000D03*
D19*
X277000000Y-150200000D03*
D20*
X272000000Y-154000000D03*
D19*
X272000000Y-148100000D03*
D17*
X248780000Y-158200000D03*
D18*
X259500000Y-154000000D03*
X248500000Y-154000000D03*
D19*
X259000000Y-150200000D03*
D20*
X254000000Y-154000000D03*
D19*
X254000000Y-148100000D03*
D17*
X230780000Y-158200000D03*
D18*
X241500000Y-154000000D03*
X230500000Y-154000000D03*
D19*
X241000000Y-150200000D03*
D20*
X236000000Y-154000000D03*
D19*
X236000000Y-148100000D03*
D17*
X212780000Y-158200000D03*
D18*
X223500000Y-154000000D03*
X212500000Y-154000000D03*
D19*
X223000000Y-150200000D03*
D20*
X218000000Y-154000000D03*
D19*
X218000000Y-148100000D03*
D17*
X194780000Y-158200000D03*
D18*
X205500000Y-154000000D03*
X194500000Y-154000000D03*
D19*
X205000000Y-150200000D03*
D20*
X200000000Y-154000000D03*
D19*
X200000000Y-148100000D03*
D21*
X282000000Y-207900000D03*
D22*
X282000000Y-200100000D03*
D23*
X282000000Y-205400000D03*
X282000000Y-202600000D03*
D21*
X271000000Y-207900000D03*
D22*
X271000000Y-200100000D03*
D23*
X271000000Y-205400000D03*
X271000000Y-202600000D03*
D21*
X235000000Y-207900000D03*
D22*
X235000000Y-200100000D03*
D23*
X235000000Y-205400000D03*
X235000000Y-202600000D03*
D21*
X208000000Y-207900000D03*
D22*
X208000000Y-200100000D03*
D23*
X208000000Y-205400000D03*
X208000000Y-202600000D03*
D21*
X282000000Y-190900000D03*
D22*
X282000000Y-183100000D03*
D23*
X282000000Y-188400000D03*
X282000000Y-185600000D03*
D21*
X280000000Y-190900000D03*
D22*
X280000000Y-183100000D03*
D23*
X280000000Y-188400000D03*
X280000000Y-185600000D03*
D21*
X262000000Y-190900000D03*
D22*
X262000000Y-183100000D03*
D23*
X262000000Y-188400000D03*
X262000000Y-185600000D03*
D21*
X244000000Y-190900000D03*
D22*
X244000000Y-183100000D03*
D23*
X244000000Y-188400000D03*
X244000000Y-185600000D03*
D21*
X226000000Y-190900000D03*
D22*
X226000000Y-183100000D03*
D23*
X226000000Y-188400000D03*
X226000000Y-185600000D03*
D21*
X208000000Y-190900000D03*
D22*
X208000000Y-183100000D03*
D23*
X208000000Y-188400000D03*
X208000000Y-185600000D03*
D21*
X293000000Y-190900000D03*
D22*
X293000000Y-183100000D03*
D23*
X293000000Y-188400000D03*
X293000000Y-185600000D03*
D21*
X264000000Y-173900000D03*
D22*
X264000000Y-166100000D03*
D23*
X264000000Y-171400000D03*
X264000000Y-168600000D03*
D21*
X262000000Y-173900000D03*
D22*
X262000000Y-166100000D03*
D23*
X262000000Y-171400000D03*
X262000000Y-168600000D03*
D21*
X244000000Y-173900000D03*
D22*
X244000000Y-166100000D03*
D23*
X244000000Y-171400000D03*
X244000000Y-168600000D03*
D21*
X226000000Y-173900000D03*
D22*
X226000000Y-166100000D03*
D23*
X226000000Y-171400000D03*
X226000000Y-168600000D03*
D21*
X208000000Y-173900000D03*
D22*
X208000000Y-166100000D03*
D23*
X208000000Y-171400000D03*
X208000000Y-168600000D03*
D21*
X298000000Y-156900000D03*
D22*
X298000000Y-149100000D03*
D23*
X298000000Y-154400000D03*
X298000000Y-151600000D03*
D21*
X280000000Y-156900000D03*
D22*
X280000000Y-149100000D03*
D23*
X280000000Y-154400000D03*
X280000000Y-151600000D03*
D21*
X262000000Y-156900000D03*
D22*
X262000000Y-149100000D03*
D23*
X262000000Y-154400000D03*
X262000000Y-151600000D03*
D21*
X244000000Y-156900000D03*
D22*
X244000000Y-149100000D03*
D23*
X244000000Y-154400000D03*
X244000000Y-151600000D03*
D21*
X226100000Y-156900000D03*
D22*
X226100000Y-149100000D03*
D23*
X226100000Y-154400000D03*
X226100000Y-151600000D03*
D21*
X208000000Y-156900000D03*
D22*
X208000000Y-149100000D03*
D23*
X208000000Y-154400000D03*
X208000000Y-151600000D03*
M02*
