M48
; DRILL file {KiCad (5.1.4)-1} date 12/10/2020 17:36:53
; FORMAT={-:-/ absolute / inch / decimal}
; #@! TF.CreationDate,2020-12-10T17:36:53-06:00
; #@! TF.GenerationSoftware,Kicad,Pcbnew,(5.1.4)-1
; #@! TF.FileFunction,Plated,1,2,PTH
FMAT,2
INCH
T1C0.0157
T2C0.0394
T3C0.0430
T4C0.0472
T5C0.0866
%
G90
G05
T1
X8.315Y-6.8996
X8.439Y-6.8996
X9.1457Y-6.8976
X9.7736Y-6.2992
X9.8524Y-6.8996
X10.9272Y-7.126
X10.9469Y-7.3268
X7.435Y-5.7087
X7.4541Y-5.6627
X7.4541Y-5.7546
X7.5Y-5.6437
X7.5Y-5.7736
X7.5459Y-5.6627
X7.5459Y-5.7546
X7.565Y-5.7087
X11.7264Y-5.7087
X11.7454Y-5.6627
X11.7454Y-5.7546
X11.7913Y-5.6437
X11.7913Y-5.7736
X11.8373Y-5.6627
X11.8373Y-5.7546
X11.8563Y-5.7087
X7.435Y-8.4252
X7.4541Y-8.3793
X7.4541Y-8.4711
X7.5Y-8.3602
X7.5Y-8.4902
X7.5459Y-8.3793
X7.5459Y-8.4711
X7.565Y-8.4252
X11.7264Y-8.4252
X11.7454Y-8.3793
X11.7454Y-8.4711
X11.7913Y-8.3602
X11.7913Y-8.4902
X11.8373Y-8.3793
X11.8373Y-8.4711
X11.8563Y-8.4252
T2
X8.9016Y-5.8701
X8.9016Y-6.1772
X10.3937Y-6.5394
X10.3937Y-6.8465
X9.6063Y-7.2087
X9.6063Y-7.5157
X10.6693Y-7.878
X10.6693Y-8.185
X11.0236Y-5.8701
X11.0236Y-6.1772
X8.189Y-7.878
X8.189Y-8.185
X11.1024Y-7.878
X11.1024Y-8.185
X10.315Y-6.5394
X10.315Y-6.8465
X8.189Y-5.8701
X8.189Y-6.1772
X10.315Y-7.2087
X10.315Y-7.5157
X8.8976Y-6.5394
X8.8976Y-6.8465
X11.7323Y-5.8701
X11.7323Y-6.1772
X11.0236Y-7.2087
X11.0236Y-7.5157
X11.5354Y-7.2087
X11.5354Y-7.5157
X11.1024Y-7.2087
X11.1024Y-7.5157
X9.6063Y-5.8701
X9.6063Y-6.1772
X8.8976Y-7.2087
X8.8976Y-7.5157
X10.315Y-5.8701
X10.315Y-6.1772
X10.88Y-7.92
X10.88Y-8.02
X9.252Y-7.878
X9.252Y-8.185
X9.6063Y-6.5394
X9.6063Y-6.8465
X8.189Y-7.2087
X8.189Y-7.5157
X8.189Y-6.5394
X8.189Y-6.8465
T3
X10.5287Y-6.4185
X10.5287Y-7.0185
X10.6287Y-6.4185
X10.6287Y-7.0185
X10.7287Y-6.4185
X10.7287Y-7.0185
X10.8287Y-6.4185
X10.8287Y-7.0185
X10.9287Y-6.4185
X10.9287Y-7.0185
X11.0287Y-6.4185
X11.0287Y-7.0185
X11.1287Y-6.4185
X11.1287Y-7.0185
X11.2287Y-6.4185
X11.2287Y-7.0185
X11.3287Y-6.4185
X11.3287Y-7.0185
X11.4287Y-6.4185
X11.4287Y-7.0185
X11.5287Y-6.4185
X11.5287Y-7.0185
X11.6287Y-6.4185
X11.6287Y-7.0185
X11.7287Y-6.4185
X11.7287Y-7.0185
T4
X10.7087Y-5.8307
X10.9055Y-5.9134
X11.4173Y-6.5
X11.6142Y-6.5827
X8.5827Y-7.1693
X8.7795Y-7.252
X7.874Y-5.8307
X8.0709Y-5.9134
X10.7087Y-7.1693
X10.9055Y-7.252
X11.4173Y-7.1693
X11.6142Y-7.252
X11.4173Y-7.8386
X11.6142Y-7.9213
X9.2913Y-6.5
X9.4882Y-6.5827
X7.874Y-7.1693
X8.0709Y-7.252
X10.0Y-5.8307
X10.1969Y-5.9134
X10.0Y-7.1693
X10.1969Y-7.252
X8.5827Y-5.8307
X8.7795Y-5.9134
X10.3543Y-7.8386
X10.5512Y-7.9213
X7.874Y-6.5
X8.0709Y-6.5827
X8.5827Y-6.5
X8.7795Y-6.5827
X10.7087Y-6.5
X10.9055Y-6.5827
X9.2913Y-7.1693
X9.4882Y-7.252
X10.0Y-6.5
X10.1969Y-6.5827
X8.937Y-7.8386
X9.1339Y-7.9213
X11.4173Y-5.8307
X11.6142Y-5.9134
X7.874Y-7.8386
X8.0709Y-7.9213
X9.2913Y-5.8307
X9.4882Y-5.9134
T5
X11.7913Y-5.7087
X7.5Y-8.4252
X11.7913Y-8.4252
X7.5Y-5.7087
T0
M30
